# xmcd
#
# Track frame offsets: 
#        150
#        22447
#        45073
#        65548
#        92754
#        109269
#        125715
#
# Disc length: 1913 seconds
#
# Revision: 1
# Processed by: cddbd v1.5.2PL0 Copyright (c) Steve Scherf et al.
# Submitted via: ExactAudioCopy v0.95b4
#
DISCID=5e077707
DTITLE=Marcia Ball - Live At Waterloo Studios [EP]
DYEAR=2004
DGENRE=Blues
TTITLE0=Rockin' Is Our Business
TTITLE1=Foreclose On The House Of Love
TTITLE2=Dance With Me
TTITLE3=Give It Up (Give In)
TTITLE4=So Many Rivers To Cross
TTITLE5=Give Me A Chance
TTITLE6=If It Ain't One Thing
EXTD=YEAR: 2004
EXTT0=
EXTT1=
EXTT2=
EXTT3=
EXTT4=
EXTT5=
EXTT6=
PLAYORDER=
